<svg width="96" height="96" viewBox="0 0 96 96" fill="none" xmlns="http://www.w3.org/2000/svg">
  <!-- Background circle -->
  <circle cx="48" cy="48" r="44" fill="#1e40af" stroke="#3b82f6" stroke-width="2"/>
  
  <!-- Shield base -->
  <path d="M48 16 L72 28 L72 44 C72 56 60 68 48 72 C36 68 24 56 24 44 L24 28 Z" fill="#ffffff" stroke="#1e40af" stroke-width="1.5"/>
  
  <!-- Shield inner -->
  <path d="M48 20 L66 30 L66 44 C66 54 56 64 48 68 C40 64 30 54 30 44 L30 30 Z" fill="#3b82f6"/>
  
  <!-- AI brain/network pattern -->
  <circle cx="48" cy="40" r="3" fill="#ffffff"/>
  <circle cx="40" cy="48" r="2" fill="#ffffff"/>
  <circle cx="56" cy="48" r="2" fill="#ffffff"/>
  <circle cx="44" cy="56" r="2" fill="#ffffff"/>
  <circle cx="52" cy="56" r="2" fill="#ffffff"/>
  
  <!-- Connection lines -->
  <line x1="48" y1="40" x2="40" y2="48" stroke="#ffffff" stroke-width="1"/>
  <line x1="48" y1="40" x2="56" y2="48" stroke="#ffffff" stroke-width="1"/>
  <line x1="40" y1="48" x2="44" y2="56" stroke="#ffffff" stroke-width="1"/>
  <line x1="56" y1="48" x2="52" y2="56" stroke="#ffffff" stroke-width="1"/>
  
  <!-- Cross symbol for anti-gambling -->
  <line x1="42" y1="62" x2="54" y2="62" stroke="#ef4444" stroke-width="2" stroke-linecap="round"/>
  <line x1="48" y1="58" x2="48" y2="66" stroke="#ef4444" stroke-width="2" stroke-linecap="round"/>
</svg> 